<?xml version="1.0" encoding="UTF-8" standalone="no" ?>
<!DOCTYPE svg PUBLIC "-//W3C//DTD SVG 1.1//EN" "http://www.w3.org/Graphics/SVG/1.1/DTD/svg11.dtd">
<svg xmlns="http://www.w3.org/2000/svg" xmlns:xlink="http://www.w3.org/1999/xlink" version="1.1" width="1000" height="1000" viewBox="0 0 500 500" xml:space="preserve">
<desc>Created with Fabric.js 5.3.0</desc>
<defs>
</defs>
<g transform="matrix(1.0205873325 0 0 0.7621045933 250 250)" id="X6n_BoAp3Ih3mIhCgjgvU"  >
<path style="stroke: rgb(145,227,97); stroke-width: 0; stroke-dasharray: none; stroke-linecap: butt; stroke-dashoffset: 0; stroke-linejoin: miter; stroke-miterlimit: 4; fill: rgb(0,47,3); fill-rule: nonzero; opacity: 1;"  transform=" translate(-220.6337950704, -225.0258061033)" d="M 90.49295 395.03189 C 40.540839999999996 395.03189 0 354.49105 0 304.53893999999997 C 0 270.84905999999995 18.44098 241.44011999999998 45.7728 225.86226999999997 C 46.847919999999995 213.62371999999996 50.36266 202.08163999999996 55.82733999999999 191.72574999999998 C 46.963899999999995 177.73711999999998 41.83096999999999 161.15447999999998 41.83096999999999 143.38026999999997 C 41.83096999999999 93.42815999999996 82.37181 52.887319999999974 132.32392 52.887319999999974 C 133.91136999999998 52.887319999999974 135.48931 52.92825999999997 137.05675 53.00914999999998 C 151.31544 21.746229999999976 182.85191 -0.000010000000024490419 219.4366 -0.000010000000024490419 C 256.1322 -0.000010000000024490419 287.74891 21.878259999999976 301.94564 53.293709999999976 C 310.32941000000005 50.726599999999976 319.22969 49.34513999999997 328.45067 49.34513999999997 C 378.40278 49.34513999999997 418.94362 89.88597999999998 418.94362 139.83808999999997 C 418.94362 155.99479999999997 414.7024 171.16692999999998 407.27331000000004 184.30114999999995 C 427.99165000000005 200.88890999999995 441.26759000000004 226.39211999999995 441.26759000000004 254.97723999999994 C 441.26759000000004 288.25956999999994 423.27007000000003 317.3639099999999 396.48277 333.08250999999996 C 399.04421 341.45782999999994 400.4225 350.34826 400.4225 359.55863999999997 C 400.4225 409.51075 359.88166 450.05159 309.92955 450.05159 C 280.38601 450.05159 254.13451 435.87048 237.61525 413.94845999999995 C 228.37063 412.62955999999997 219.57493 409.91178999999994 211.44959 406.01662999999996 C 196.83838 416.13832999999994 179.10772 422.07036999999997 159.99997 422.07036999999997 C 134.69332 422.07036999999997 111.80219 411.66508 95.37432999999999 394.90225 C 93.75803999999998 394.9883 92.13053999999998 395.03186999999997 90.49292999999999 395.03186999999997 z" stroke-linecap="round" />
</g>
</svg>