<?xml version="1.0" standalone="no"?>
<!DOCTYPE svg PUBLIC "-//W3C//DTD SVG 20010904//EN"
 "http://www.w3.org/TR/2001/REC-SVG-20010904/DTD/svg10.dtd">
<svg version="1.0" xmlns="http://www.w3.org/2000/svg"
 width="800.000000pt" height="720.000000pt" viewBox="0 0 800.000000 720.000000"
 preserveAspectRatio="xMidYMid meet">

<g transform="translate(0.000000,720.000000) scale(0.100000,-0.100000)"
fill="#000000" stroke="none">
<path d="M5405 7180 c-282 -62 -481 -162 -660 -332 -188 -177 -307 -381 -371
-633 -35 -136 -44 -366 -20 -505 46 -263 168 -502 351 -686 176 -177 367 -287
607 -349 142 -37 360 -45 508 -20 277 46 492 157 696 360 191 189 295 377 354
640 19 83 23 129 23 270 -1 156 -3 180 -31 288 -91 351 -293 623 -597 804
-107 64 -212 106 -365 145 -156 40 -359 48 -495 18z"/>
<path d="M812 4878 l-22 -24 0 -1102 0 -1101 22 -15 c20 -14 177 -16 1485 -16
l1463 0 0 -45 0 -45 -1468 -2 -1468 -3 -105 -88 c-57 -49 -242 -204 -411 -345
l-307 -257 -1 -102 c0 -57 1 -104 3 -105 1 -2 846 -5 1877 -8 l1875 -5 5 -415
c5 -438 5 -434 54 -488 50 -56 55 -57 410 -60 181 -2 340 -1 353 3 l23 5 2
1433 3 1432 27 51 c33 62 101 124 177 161 l56 28 855 6 c470 4 943 7 1050 8
l195 2 -92 88 c-110 106 -296 234 -448 307 -436 210 -942 241 -1404 87 -264
-88 -478 -220 -702 -432 l-106 -100 -6 97 c-4 53 -7 307 -7 563 0 461 0 466
-21 485 -21 18 -65 19 -1683 22 l-1661 3 -23 -23z m3245 -150 c4 -7 7 -282 5
-612 l-2 -599 -34 -56 c-112 -185 -195 -405 -237 -624 -5 -28 -15 -55 -22 -59
-6 -4 -646 -8 -1420 -8 -1331 0 -1408 1 -1415 18 -9 22 -9 1912 0 1935 7 16
91 17 1562 17 1233 0 1556 -3 1563 -12z m-299 -2410 l-3 -163 -1598 -3 c-1442
-2 -1598 -1 -1595 13 2 9 77 83 168 165 l165 149 1433 0 1432 1 -2 -162z
m-505 -312 c21 -55 36 -105 33 -113 -5 -11 -144 -13 -803 -11 -792 3 -798 3
-795 23 2 11 20 62 39 113 l36 92 726 -2 725 -3 39 -99z"/>
<path d="M1330 4125 l0 -375 285 0 c157 0 285 -1 285 -2 0 -2 3 -174 7 -383 4
-259 10 -382 17 -387 14 -9 1429 -10 1544 -1 l82 6 0 608 0 609 -503 0 c-277
0 -559 3 -625 7 l-122 6 0 144 0 143 -485 0 -485 0 0 -375z m910 171 l0 -83
-46 -7 c-26 -3 -100 -6 -164 -6 l-117 0 -7 -31 c-3 -17 -6 -105 -6 -195 l0
-164 -255 0 -255 0 0 285 0 285 425 0 425 0 0 -84z m1255 -328 c9 -148 2 -909
-8 -925 -6 -10 -170 -13 -761 -13 l-753 0 -6 68 c-9 87 -9 827 0 915 l6 67
757 0 758 0 7 -112z"/>
<path d="M4850 3623 c-39 -21 -62 -41 -84 -78 l-31 -50 -3 -1658 c-2 -1633 -2
-1658 18 -1696 10 -21 38 -55 61 -74 83 -72 -24 -67 1556 -67 783 0 1431 4
1441 8 9 5 38 19 64 31 52 26 77 49 107 104 l21 38 0 1645 c0 1608 0 1646 -19
1683 -23 44 -80 97 -130 120 -33 14 -173 16 -1492 19 l-1455 3 -54 -28z"/>
</g>
</svg>
