<svg xmlns="http://www.w3.org/2000/svg" viewBox="0 0 873 829"><path fill="#fbfbfb" stroke="#fbfbfb" d="M544.5 158.077c-51.192 3.114-101.691 27.603-130.924 63.489l-4.299 5.277-5.389-5.463c-31.214-31.647-93.767-40.024-136.956-18.34-31.957 16.044-58.111 57.294-62.427 98.46-1.233 11.758-1.24 11.772-5.25 11.02-13.611-2.553-43.337.07-63.179 5.575C93.993 329.771 50.219 372.286 31.668 419.5c-22.957 58.427-7.104 125.078 41.286 173.568 18.379 18.418 41.769 31.623 68.095 38.445 3.391.878 7.829 2.647 9.862 3.931 16.727 10.559 39.275 18.138 61.089 20.532 19.813 2.175 513.616.918 523-1.331 33.055-7.922 60.193-25.56 81.002-52.645 3.169-4.125 6.996-8.625 8.504-10 14.382-13.114 29.697-40.393 35.621-63.444 20.003-77.838-19.34-151.92-93.492-176.041-4.749-1.545-8.635-3.145-8.635-3.556 0-.411-.462-5.407-1.026-11.103C746.401 231.122 652.32 151.518 544.5 158.077m-5 80.48c-40.554 6.048-78.77 28.196-104.767 60.719-3.858 4.826-7.111 8.651-7.228 8.5-12.616-16.362-22.745-25.321-36.483-32.27-41.546-21.014-93.114-6.524-116.853 32.835-11.329 18.785-15.23 38.647-12.204 62.144.495 3.841.78 7.103.635 7.248-.145.146-4.952-.446-10.682-1.315-55.046-8.344-106.037 14.037-135.386 59.424C61.389 521.116 117.971 633.339 220 641.059c24.994 1.891 500.964.682 509.5-1.294 62.28-14.42 101.313-66.37 96.374-128.265-4.09-51.253-39.822-92.428-91.535-105.479l-4.162-1.05-.634-8.736c-.894-12.335-3.246-27.455-5.636-36.235C701.83 278.881 621.933 226.264 539.5 238.557m-32.822 60.854c-7.918 2.907-8.678 5.586-8.678 30.598 0 20.624-.029 20.914-2.411 23.685l-2.412 2.806-22.838.517c-24.958.565-24.834.541-28.089 5.311-2.148 3.147-2.25 4.197-2.246 23.234.005 29.77-.353 29.438 31.853 29.438 28.095 0 25.502-2.65 26.143 26.709.7 32.032.013 31.291 29 31.291s28.3.741 29-31.291c.641-29.359-1.952-26.709 26.143-26.709 32.206 0 31.848.332 31.853-29.438.004-19.037-.098-20.087-2.246-23.234-3.254-4.768-3.137-4.746-27.975-5.311-29.881-.68-27.118 2.085-27.775-27.792-.691-31.388.081-30.52-27.5-30.942-13.531-.207-18.949.073-21.822 1.128m11.499 26.022c-4.498 6.288-8.177 11.688-8.177 12 0 .312 7.65.567 17 .567s17-.255 17-.567c0-.953-16.309-23.433-17-23.433-.356 0-4.326 5.145-8.823 11.433m1.323 42.463c-19.07 8.829-13.357 37.06 7.5 37.06s26.57-28.231 7.5-37.06c-2.2-1.019-5.575-1.852-7.5-1.852-1.925 0-5.3.833-7.5 1.852m-53.34 9.397-11.339 8.194 3.155 2.634c1.735 1.449 7.175 5.415 12.089 8.815l8.935 6.181v-17.058c0-9.383-.337-17.036-.75-17.009-.413.028-5.853 3.737-12.09 8.243M575 386.059v17.058l8.935-6.181c4.914-3.4 10.355-7.367 12.091-8.817l3.157-2.635-11.524-8.242c-6.339-4.533-11.78-8.242-12.092-8.242-.312 0-.567 7.676-.567 17.059m-64.36 49.191C513.562 440.067 526.299 457 527 457c.701 0 13.438-16.933 16.36-21.75.595-.981-2.928-1.25-16.36-1.25-13.432 0-16.955.269-16.36 1.25m-286.055 50.634c-4.202 5.724-4.285 6.198-1.397 8.001 2.109 1.317 2.121 1.416.33 2.725-4.981 3.642-6.885 10.201-4.05 13.949 2.101 2.778 1.874 8.19-.468 11.168-1.876 2.385-2 4.057-2 26.974 0 14.023.417 25.21.979 26.26 2.298 4.295 12.112 4.812 15.706.828 1.667-1.849 1.815-4.424 1.815-31.694 0-27.719.129-29.876 1.945-32.638 2.605-3.962 2.506-8.816-.24-11.739l-2.196-2.337 3.036-4.128 3.036-4.127-5.382-4.063c-6.736-5.086-6.78-5.083-11.114.821m172.397.258-4.064 5.142 2.047 2.178 2.046 2.179-2.476 2.326c-4.155 3.903-5.093 8.422-2.62 12.613 2.696 4.57 2.642 8.198-.165 11.186-3.17 3.375-3.55 50.588-.435 54.03 3.551 3.923 12.146 3.595 15.322-.585.947-1.248 1.32-6.587 1.375-19.711.041-9.9.437-19.866.879-22.148.441-2.281.412-4.846-.066-5.701-1.833-3.275-1.167-13.401 1.068-16.242 2.691-3.421 2.741-8.525.107-10.909-2.577-2.332-2.521-3.128.5-7.089 3.248-4.259 3.245-4.271-2.45-8.661-6.17-4.756-6.212-4.751-11.068 1.392m-61.151 7.178c-.292 4.577-1.014 7.097-2.617 9.135-2.186 2.779-2.214 3.239-2.214 36.624v33.809l2.414 2.806c3.41 3.964 10.808 3.912 14.259-.1 2.206-2.565 2.328-3.469 2.342-17.4.016-16.13.76-19.039 5.278-20.628 2.285-.804 3.127-.591 4.979 1.259 2.076 2.074 2.262 3.346 2.728 18.676.597 19.64 1.277 21.055 10.067 20.925 9.291-.137 10.048-3.482 8.596-38.015-.949-22.565-1.91-26.209-8.164-30.98-4.625-3.527-13.925-4.533-19.679-2.129l-3.608 1.507-.606-3.029c-.333-1.667-.606-6.574-.606-10.905V487h-12.767l-.402 6.32m198.836-.653c-.367.366-.667 3.375-.667 6.685 0 4.866-.431 6.478-2.25 8.412-2.209 2.351-2.256 2.916-2.568 31.206-.429 38.908-.231 39.488 13.889 40.622 20.451 1.642 36.887-6.911 43.133-22.445 2.556-6.357 3.011-31.771.74-41.335-3.79-15.958-16.945-23.812-39.883-23.812-6.45 0-12.028.3-12.394.667m-110.871 7.083-.296 6.75-3.817.314-3.816.315.236 6.521c.13 3.587-.203 6.821-.741 7.186-5.33 3.619-5.599 10.157-.619 15.014l3.742 3.65.589 13c.654 14.426 2.346 19.526 7.755 23.378 7.381 5.256 20.805 4.723 25.636-1.018l2.535-3.013V577h72v-8h-36c-35.6 0-36-.023-36-2.045 0-1.125-1.046-3.092-2.324-4.37-2.207-2.207-2.232-2.381-.5-3.463 2.669-1.667 2.74-13.726.074-12.591-5.91 2.514-9.067 2.819-11.651 1.126-4.703-3.082-2.873-9.012 3.124-10.125 2.077-.386 4.556-1.4 5.507-2.254 4.419-3.965 2.464-13.647-2.998-14.851-4.828-1.064-4.825-1.268.018-1.348L451 519v-12h-14v-14H424.091l-.295 6.75m-160.546 7.774c-1.244.879-2.25 1.117-2.25.533 0-.642-2.75-1.057-7-1.057h-7v6.092c0 4.578-.497 6.724-2 8.635-2.376 3.02-3.108 47.748-.862 52.676 2.2 4.83 11.664 5.679 15.547 1.396 1.554-1.715 1.887-4.424 2.315-18.869.572-19.307.709-19.629 8.5-20.064l5-.279-.314 8.957c-.486 13.837 2.595 21.566 11.23 28.179 10.45 8.002 30.036 7.875 36.416-.237 2.805-3.566 2.974-10.68.316-13.338-1.802-1.802-1.801-1.883.046-3.037 1.664-1.039 1.814-1.948 1.219-7.398-.801-7.342-.885-7.487-3.157-5.494-7.312 6.412-20.777 6.281-24.265-.236-1.273-2.378 2.519-6.898 5.964-7.108 1.125-.069 2.608-.204 3.295-.3.688-.095 3.685.369 6.662 1.032s6.127.938 7 .611c3.904-1.461 5.699-7.445 3.968-13.224-.782-2.611-.826-5.461-.144-9.418l.977-5.673-3.106-1.627c-4.808-2.519-18.555-2.949-24.285-.761-8.52 3.254-17.281 14-17.312 21.235-.017 3.871-1.715 2.455-2.4-2-.359-2.337-.756-7.85-.881-12.25l-.229-8-5.5-.283c-3.793-.195-6.198.21-7.75 1.307m351.229.834c-8.598 4.003-13.948 10.947-15.934 20.682-.388 1.903-1.607 5.935-2.707 8.96-9.662 26.547 18.021 50.629 44.826 38.995 6.625-2.875 8.745-10.802 4.186-15.654-1.912-2.035-1.967-2.359-.5-2.922.908-.348 1.65-1 1.65-1.449 0-.449 1.414-2.23 3.143-3.959l3.143-3.143-.663-9.684-.663-9.684 2.835 6c1.56 3.3 5.646 13.034 9.08 21.632 7.149 17.896 8.93 20.201 15.604 20.201 7.737 0 7.976-.364 19.406-29.572 8.669-22.154 9.195-24.474 6.171-27.211-2.117-1.915-2.331-.847 2.674-13.344.403-1.007-1.203-1.229-7.226-1l-7.744.294-5.403 15.44c-2.971 8.491-5.558 15.595-5.748 15.784-.19.19-2.823-6.757-5.852-15.439l-5.506-15.785-7.625-.292c-8.185-.314-8.594-.013-6.253 4.592 2.449 4.814 2.896 7.2 1.349 7.2-.776 0-2.227.9-3.222 2-2.414 2.667-3.12 2.528-4.296-.844-4.234-12.147-21.43-17.989-34.725-11.798m10.334 9.325c.721.289 1.584.253 1.916-.079.332-.332-.258-.568-1.312-.525-1.165.048-1.402.285-.604.604m-74.241 6.888c-1.246 1.246-1.572 3.941-1.572 13V549h4.788c12.138 0 17.084-7 11.995-16.977-3.314-6.499-11.939-10.725-15.211-7.452m69.933 14.437c.343.554 1.774.799 3.182.544 4.04-.733 3.998-1.552-.079-1.552-2.249 0-3.479.4-3.103 1.008m-166.87 44.065c-3.346 2.631-3.603 7.741-.53 10.522 1.983 1.794 4.07 1.905 35.895 1.905 31.825 0 33.912-.111 35.895-1.905 3.073-2.781 2.816-7.891-.53-10.522-4.1-3.226-66.63-3.226-70.73 0" fill-rule="evenodd"/><path fill="#6ceb6c" stroke="#6ceb6c" d="M530.5 159.515c-45.738 6.479-90.484 30.06-115.464 60.847l-5.427 6.689-5.554-5.383c-32.072-31.082-89.302-39.697-133.591-20.11-34.176 15.114-62.353 59.328-66.105 103.725l-.61 7.217h-21.124c-44.2 0-69.991 9.999-103.933 40.295C16.288 408.496 3.76 492.709 47.678 561.283 69.75 595.748 97.647 617.754 133 628.589c6.325 1.938 13.75 4.67 16.5 6.07 23.585 12.01 30.493 14.8 45 18.174 4.95 1.152 13.95 2.56 20 3.129 14.957 1.409 496.713 1.436 508.526.029 36.518-4.349 69.37-23.381 92.332-53.491 3.356-4.4 9.109-11.248 12.787-15.218 39.002-42.107 48.373-113.069 21.769-164.85-16.981-33.053-50.382-60.209-87.227-70.921L757 349.858v-6.051c0-25.996-12.356-64.472-29.322-91.307-42.21-66.762-120.769-103.809-197.178-92.985m7.5 79.047c-42.323 6.648-78.699 28.948-108.071 66.253l-2.114 2.685-4.09-5c-28.041-34.285-68.841-45.984-106.674-30.588-39.935 16.252-61.756 55.928-55.222 100.407.822 5.595.775 5.799-1.237 5.306-73.27-17.933-147.06 29.375-163.33 104.716-2.5 11.575-2.468 39.861.058 51.659 12.128 56.642 57.234 98.916 113.68 106.542 15.637 2.113 497.298 2.119 513 .006 72.908-9.808 119.876-85.471 96.849-156.02-12.566-38.502-45.317-68.605-85.481-78.572l-5.133-1.274-.673-10.091c-3.83-57.405-32.235-104.367-81.562-134.849-29.817-18.425-73.719-26.878-110-21.18m-33.686 62.388c-5.478 3.34-5.745 4.585-6.302 29.391-.657 29.315 1.971 26.658-26.373 26.661-31.657.002-31.635-.018-31.637 28.798-.003 28.416-.226 28.2 29.165 28.2 22.867 0 27.309.815 28.273 5.184.281 1.274.652 11.766.825 23.316.458 30.579-.593 29.5 28.735 29.5s28.277 1.079 28.735-29.5c.173-11.55.544-22.042.825-23.316.964-4.369 5.406-5.184 28.273-5.184 29.391 0 29.168.216 29.165-28.2-.002-28.816.02-28.796-31.637-28.798-28.344-.003-25.716 2.654-26.373-26.661-.725-32.311.179-31.334-28.988-31.334-17.548 0-19.819.195-22.686 1.943M518 324.747c-4.125 5.868-7.645 11.251-7.823 11.961-.255 1.018 3.311 1.292 16.823 1.292s17.078-.274 16.823-1.292c-.711-2.84-15.423-22.632-16.823-22.632-.825 0-4.875 4.802-9 10.671m.5 42.912c-14.6 7.683-15.391 25.64-1.545 35.067 18.003 12.258 39.472-12.992 25.333-29.795-5.444-6.47-16.75-8.976-23.788-5.272m-51.813 8.617c-6.373 4.523-11.61 8.751-11.637 9.395-.069 1.615 22.676 17.616 23.935 16.838 1.251-.773 1.397-33.155.153-33.924-.475-.293-6.077 3.168-12.451 7.691M575 385.402c0 9.679.275 17.598.611 17.598 1.463 0 23.385-16.273 23.345-17.329-.037-.993-11.358-9.568-21.151-16.019L575 367.804v17.598m-64.764 49.394C510.827 437.055 525.959 458 527 458c1.041 0 16.173-20.945 16.764-23.204.438-1.677-.675-1.796-16.764-1.796s-17.202.119-16.764 1.796m-285.562 51.449-3.826 5.214 4.178 3.563 4.179 3.564-2.655 1.209c-5.222 2.38-5.672 5.481-5.87 40.412-.172 30.571-.097 32 1.761 33.366 5.102 3.751 9.559-.013 9.559-8.073 0-4.17.355-5.5 1.469-5.5 2.117 0 2.737-52.874.669-57.139-1.278-2.634-1.138-3.122 2.25-7.837 4.465-6.216 4.525-5.755-1.338-10.274-6.097-4.7-5.799-4.743-10.376 1.495m172.861-.495c-4.404 6.003-4.384 6.39.514 9.784l4.049 2.806-2.823 1.187c-4.907 2.063-5.257 4.261-5.948 37.36-.678 32.478-.466 35.433 2.664 37.108 5.088 2.723 8.988-1.895 9.003-10.662.003-1.741.425-3.316.938-3.5 1.419-.507 1.682-56.388.274-58.085-.874-1.053-.235-2.617 2.845-6.959l3.973-5.6-5.143-4.094c-6.375-5.077-6.13-5.092-10.346.655m-61.877 14c-.357 7.012-.652 26.127-.654 42.477L335 571.954l2.615 1.713c4.721 3.093 7.813.278 8.183-7.451.218-4.564.675-6.216 1.718-6.216 1.13 0 1.478-2.382 1.702-11.645.276-11.375.345-11.691 3.013-13.681 3.94-2.937 9.421-1.462 12.18 3.279 1.713 2.943 2.071 5.717 2.422 18.779.381 14.188.568 15.435 2.512 16.797 5.114 3.582 8.655.678 8.655-7.1 0-5.015.427-5.817 3-5.629.884.064-.06-37.173-1.035-40.8-3.228-12.013-15.035-17.328-26.715-12.027l-4.25 1.929V487H336.309l-.651 12.75m200.246-7.147c-1.963.596-2.904 18.229-2.904 54.445 0 30.141-.888 28.48 15.165 28.386 22.515-.132 33.672-8.973 36.757-29.127.573-3.744 1.531-9.057 2.129-11.807 3.75-17.248-3.395-32.159-18.816-39.268-5.575-2.57-26.825-4.298-32.331-2.629M424 499.94v6.939l-3.75.311-3.75.31-.3 5.75-.3 5.75h3.05c3.83 0 3.841.964.05 4.342-4.423 3.941-4.347 6.583.332 11.462l3.168 3.305.507 13.695c.585 15.827 1.785 18.949 8.537 22.217 9.534 4.616 21.291.336 18.99-6.913-.656-2.066-3.311-3.073-8.162-3.094-1.72-.008-3.687-.689-4.372-1.514-1.079-1.3-.559-1.5 3.91-1.5 9.594 0 12.09-1.848 12.09-8.949 0-3.328-.174-6.051-.386-6.051-.212 0-1.674.672-3.25 1.494-7.401 3.86-12.473 1.237-13.139-6.795-.456-5.499-.413-5.612 2.405-6.219 10.247-2.208 11.633-9.321 2.181-11.191-2.827-.559-4.408-1.437-4.626-2.569-.289-1.497.593-1.72 6.792-1.72h7.123l-.3-5.75-.3-5.75-6.75-.296-6.75-.295V493h-13v6.94M548 506c0 1.693.667 2 4.341 2 3.88 0 9.375 1.283 15.159 3.54 1.763.688 1.711.463-.441-1.898C562.588 504.738 548 501.95 548 506m-284.25 1.572c-1.593.864-2.75 1.058-2.75.46 0-.601-2.662-1.032-6.381-1.032h-6.38l-.642 9.75c-1.953 29.678-1.869 52.573.205 55.929.395.639 1.912 1.462 3.371 1.828 4.298 1.079 6.827-2.258 6.827-9.007 0-4.222.348-5.5 1.5-5.5 1.253 0 1.5-2.052 1.5-12.465 0-13.795.352-14.535 6.911-14.535 5.72 0 7.892-7.429 2.946-10.076-1.178-.631-3.73-.79-6.182-.385l-4.175.689 2.424-2.614c2.811-3.03 8.369-3.564 11.126-1.069 1.589 1.438 1.757 1.082 2.423-5.133.547-5.114.4-6.877-.629-7.53-2.121-1.344-9.076-.947-12.094.69m33.304.156c-11.812 4.17-16.567 13.453-17.605 34.373-.748 15.081.447 20.015 6.355 26.241 10.417 10.978 36.11 9.767 35.005-1.651-.296-3.06-.474-3.179-4.309-2.91-13.062.916-16.006.715-18.719-1.281-3.642-2.68-3.475-3.559.462-2.43 6.036 1.731 15.849 1.093 21.19-1.377l4.932-2.282-.263-6.453c-.314-7.68-.461-7.907-3.356-5.195-5.948 5.571-17.191 5.992-22.346.837-7.591-7.591-3.574-12.1 10.78-12.1 11.167 0 13.211-1.152 10.929-6.161-1.762-3.866-7.378-5.649-16.044-5.093l-7.446.478 2.863-2.463c3.965-3.41 15.975-3.059 19.849.58 2.964 2.785 3.326 2.313 4.209-5.493l.688-6.082-4.792-1.633c-5.963-2.032-16.485-1.987-22.382.095m320.94-.852c-15.347 5.027-20.896 17.647-20.018 45.524.389 12.361 11.558 22.19 26.499 23.32 10.646.805 18.525-2.247 18.525-7.175 0-3.837-1.714-4.468-10.464-3.85-9.266.654-14.049-.483-17.504-4.161l-2.262-2.407 4.774 1.436c6.188 1.863 16.756 1.834 23.143-.063 5.66-1.68 6.332-3.232 6.855-15.81.174-4.19.731-6.169 1.999-7.096 2.815-2.059 1.534-13.321-2.204-19.367-4.708-7.614-9.756-10.494-19.05-10.863-4.283-.17-8.915.06-10.293.512m36.01.374c.002.137 1.31 3.604 2.908 7.704l2.904 7.453-2.149 1.072c-3.471 1.73-3.137 3.576 3.833 21.229 12.031 30.472 13.356 32.387 20.157 29.128 3.715-1.781 20.609-43.274 19.716-48.426-.36-2.076.44-5.603 2.439-10.75l2.974-7.66H692.259l-5.234 15.25c-2.879 8.388-5.569 15.86-5.978 16.605-.457.832-2.976-5.055-6.525-15.25L668.74 507h-7.37c-4.054 0-7.368.113-7.366.25M620.5 518.386c-6.809 2.967-6.277 4.563 1.311 3.927 4.049-.34 8.274-.13 10.08.499 3.378 1.178 3.607.987 2.13-1.773-1.897-3.543-8.503-4.84-13.521-2.653m-267.277 1.171c-3.634 2.544-2.625 3.125 5.27 3.032 8.008-.095 8.522-.36 5.678-2.934-2.305-2.086-8.037-2.138-10.948-.098m197.027.232c-2.213.344-2.25.586-2.25 14.781V549h5.532c16.87 0 23.194-14.132 11.082-24.766-2.026-1.779-4.005-3.245-4.399-3.258-.393-.013-2.29-.364-4.215-.781-1.925-.416-4.513-.599-5.75-.406M613 539.443c0 2.572 4.207 4.557 9.657 4.557 6.763 0 10.343-1.376 10.343-3.975 0-1.898-.626-2.025-10-2.025-8.048 0-10 .282-10 1.443M562.5 560c-1.65.42-6.15.832-10 .915l-7 .152 2.361 1.966c3.725 3.104 15.009 1.223 17.575-2.929.375-.607.543-1.051.373-.986-.17.065-1.659.462-3.309.882M455 573v4h72v-8h-72v4m1.75 13.08c-2.162 1.26-2.206 2.321-.179 4.349 1.361 1.36 5.71 1.571 32.429 1.571s31.068-.211 32.429-1.571c2.07-2.071 1.982-3.139-.363-4.394-2.599-1.39-61.922-1.349-64.316.045" fill-rule="evenodd"/><path fill="#848684" stroke="#848684" d="M542.5 158.676c-34.635 2.941-66.837 14.063-94.5 32.639-11.72 7.87-29.544 24.351-35.715 33.025l-2.315 3.253-5.735-5.346c-39.881-37.173-109.178-41.425-151.717-9.309-25.67 19.379-48.327 65.094-48.501 97.857-.017 3.281-.034 3.292-3.767 2.503-2.062-.435-11.175-.747-20.25-.692-35.392.214-66.582 10.897-90.08 30.853-17.684 15.018-24.77 21.768-30.343 28.905-42.736 54.73-49.308 118.694-18.204 177.164 21.246 39.938 51.608 65.912 92.127 78.809 6.6 2.101 14.25 4.956 17 6.344s8.535 4.304 12.855 6.478c12.992 6.541 25.809 10.73 41.645 13.611 10.611 1.931 483.034 3.123 509.5 1.286 43.006-2.985 75.563-20.913 102.708-56.556 2.513-3.3 5.8-7.125 7.305-8.5 15.39-14.069 31.733-45.22 36.934-70.399 15.651-75.77-24.484-145.342-96.947-168.054-6.773-2.123-7.008-2.306-7.245-5.621-3.028-42.27-16.676-78.721-41.424-110.636-41.178-53.104-108.256-83.14-173.331-77.614m6 15.958c-55.697 3.792-102.169 28.54-130.992 69.758l-6.918 9.893-2.483-3.393c-4.687-6.403-22.609-23.562-28.607-27.389-25.557-16.308-58.884-20.05-92-10.329-39.122 11.484-67.5 57.444-67.5 109.319 0 5.779-.18 10.507-.401 10.507-.22 0-5.732-.931-12.25-2.069-38.314-6.692-76.439 1.642-104.111 22.758-77.733 59.316-86.66 154.424-21.099 224.769 7.52 8.068 20.06 18.073 27.256 21.743l4.015 2.049-1.695-2.375c-31.752-44.498-39.873-91.119-24.146-138.626 20.24-61.14 76.391-101.44 141.681-101.686L246 359.5v-8c.001-29.628 16.33-61.104 41.5-79.993 39.956-29.987 97.875-27.151 133.907 6.555l6.432 6.016 2.546-3.339c3.682-4.827 21.483-20.358 30.436-26.553 102.045-70.622 242.207-20.315 277.12 99.464 2.834 9.721 6.025 27.707 6.044 34.058l.015 5.207 6.864 2.044c31.142 9.275 62.087 36.898 77.693 69.352 8.933 18.578 12.351 33.169 12.727 54.343.119 6.684.387 11.988.596 11.786 4.195-4.051 7.602-44.557 5.188-61.688-7.102-50.413-42.258-88.333-95.679-103.202l-10.112-2.815-.683-13.176c-3.901-75.199-48.977-136.384-120.935-164.151-20.052-7.738-49.738-12.233-71.159-10.774m-1.006 62.39c-45.631 4.37-88.246 28.53-116.935 66.295l-2.901 3.818-2.539-3.318c-9.756-12.755-23.613-24.329-36.208-30.246-63.882-30.008-135.902 21.735-128 91.961.661 5.877.985 10.903.719 11.169s-5.975-.297-12.686-1.252C167.307 363.843 94.895 425.618 94.742 507 94.621 571.284 136.986 624.164 201 639.631c10.582 2.557 511.55 3.416 526.117.902 85.403-14.738 127.621-111.592 80.322-184.272-16.989-26.106-42.412-43.428-76.031-51.805-.66-.164-1.351-4.763-1.746-11.614-5.4-93.832-88.37-164.8-182.168-155.818M227.302 483.289c-1.086 1.216-2.943 3.623-4.127 5.349l-2.152 3.139 5.565 4.202c3.061 2.311 5.766 4 6.012 3.755.245-.246 2.028-2.649 3.961-5.34l3.515-4.894-3.788-3.337c-5.797-5.108-6.727-5.405-8.986-2.874m170.153 3.211c-2.083 3.025-3.6 5.641-3.371 5.812.229.172 2.725 1.971 5.547 3.998l5.132 3.686 4.081-5.405 4.081-5.406-5.305-4.092c-6.525-5.034-5.644-5.156-10.165 1.407M336 523.5V560h13v-36.626l2.75-2.616c3.694-3.513 7.317-4.292 11.034-2.37 4.456 2.304 5.216 5.913 5.216 24.761V560l6.75.002 6.75.001-.552-19.751c-.601-21.484-1.269-24.478-6.575-29.438-5.551-5.191-13.57-6.269-21.123-2.841l-4.25 1.929V487h-13v36.5m200.75-30.869c-1.621.478-1.75 2.968-1.75 33.897v33.381l3.595.675c5.709 1.071 22.433-.178 27.905-2.083 13.742-4.786 20.625-15.43 20.734-32.061.102-15.575-6.705-26.4-19.765-31.432-5.858-2.257-25.869-3.805-30.719-2.377M424 500.5v7.5h-7v11h6.79l.391 15.75c.548 22.108 2.821 25.693 16.319 25.73 11.233.032 13.5-1.413 13.5-8.601 0-6.231-.356-6.681-3.441-4.347-1.068.807-3.855 1.468-6.193 1.468-6.585 0-7.366-1.827-7.366-17.223V519h14v-11h-14v-15h-13v7.5m124 25.753v22.53l2.482.623c7.089 1.779 16.67-2.666 20.274-9.406 2.157-4.033 2.369-5.487 2.049-14.02-.555-14.782-5.561-20.513-18.983-21.73l-5.822-.528v22.531m-284.75-18.138c-2.776 1.778-3.25 1.848-3.25.483 0-1.286-1.169-1.598-6-1.598h-6v53h12l.219-13.25.311-18.921c.141-8.546 5.157-12.628 11.58-9.424 3.875 1.933 3.479 2.408 4.225-5.058.502-5.03.33-6.262-.942-6.75-3.189-1.223-8.996-.498-12.143 1.518m36.115-1.085c-19.719 6.084-26.156 35.055-10.644 47.908 7.499 6.213 21.969 7.819 30.946 3.434 4.172-2.038 5.161-5.142 3.856-12.099l-.63-3.361-2.992 2.518c-6.666 5.609-15.651 5.659-21.693.122-6.453-5.914-5.606-21.625 1.415-26.224 3.999-2.62 13.91-2.391 18.693.431 4.049 2.389 3.956 2.486 5.188-5.444.619-3.986.492-4.266-2.677-5.918-3.874-2.02-16.698-2.836-21.462-1.367m317.635.446c-17.267 5.593-23.945 30.216-11.905 43.895 5.902 6.704 12.297 9.132 23.905 9.074 14.099-.069 17-1.587 17-8.894 0-3.053-.17-5.551-.378-5.551s-1.993.675-3.968 1.5c-4.503 1.882-16.617 1.96-20.983.136-3.093-1.293-8.671-6.836-8.671-8.617 0-.456 8.342-.984 18.537-1.174 21.367-.398 20.864-.165 20.012-9.271-1.574-16.805-16.95-26.474-33.549-21.098M222 533.5V560l6.25.001h6.25l-.282-26.5-.282-26.501H222v26.5m172 0V560h13v-53h-13v26.5m263.58-17.75c1.867 4.813 6.481 16.625 10.253 26.25l6.858 17.5h11.579l9.829-25.5c5.406-14.025 9.846-25.837 9.865-26.25.02-.413-3.002-.748-6.714-.746l-6.75.003-4.845 14.247c-7.886 23.19-6.349 22.845-13.214 2.962l-5.941-17.208-7.157-.004-7.158-.004 3.395 8.75m-38.388 2.926c-1.922.947-4.129 3.241-5.27 5.477L611.959 528h12.521c13.752 0 13.965-.117 10.516-5.775-3.202-5.251-9.487-6.662-15.804-3.549M455 573v4h72v-8h-72v4" fill-rule="evenodd"/><path fill="#0d5c0d" stroke="#0d5c0d" d="M225.688 486.008c-2.028 2.717-3.676 5.289-3.662 5.716.048 1.438 10.05 7.602 10.841 6.681.427-.498 2.194-2.753 3.925-5.011l3.149-4.107-4.221-3.311a583.513 583.513 0 0 0-5.282-4.11c-.647-.487-2.501 1.13-4.75 4.142m174.134-2.258c-.819.962-2.464 3.17-3.656 4.906l-2.168 3.155 5.003 3.595c6.199 4.453 5.826 4.498 9.777-1.188l3.278-4.718-4.278-3.747c-4.827-4.229-5.846-4.485-7.956-2.003M337 523.5V560h11v-36.154l2.872-2.872c5.233-5.233 11.473-5.093 15.526.348 1.917 2.573 2.133 4.399 2.449 20.75l.347 17.928 5.653.001 5.653.001-.297-18.751c-.164-10.313-.767-20.524-1.34-22.691-2.847-10.761-16.281-15.539-26.67-9.487-1.819 1.06-3.507 1.927-3.75 1.927-.244 0-.443-5.4-.443-12v-12h-11v36.5m201.25-30.842-3.25.469v66.693l8.439.703c14.62 1.218 26.686-2.122 34.416-9.528 12.729-12.192 11.847-40.375-1.583-50.618-8.399-6.406-24.488-9.672-38.022-7.719M425 500.5v7.5h-8v11h8l.022 14.75c.033 21.894 3.057 26.775 16.478 26.591 9.899-.137 11.5-1.23 11.5-7.851 0-5.187-.13-5.491-1.934-4.525-2.215 1.185-10.024 1.366-11.666.27-2.637-1.761-3.4-5.612-3.4-17.169V519h14v-11h-14v-15h-11v7.5m122 25.893c0 24.633-.274 23.613 6.332 23.601 12.627-.022 20.607-8.525 20.64-21.994.041-15.974-7.371-23.977-22.222-23.994L547 504v22.393M263.64 508.47c-3.452 2.342-3.64 2.368-3.64.5 0-1.741-.697-1.97-6-1.97h-6v53h12v-37.822l3.182-2.677c3.073-2.586 5.405-2.891 10.818-1.411 1.181.323 1.563-.786 1.796-5.211.271-5.137.098-5.675-2-6.237-4.119-1.103-6.458-.682-10.156 1.828m36.166-1.133c-14.587 4.119-22.496 20.615-17.645 36.805 4.065 13.568 22.703 20.607 37.22 14.057 4.817-2.174 4.872-2.251 4.261-5.951-.341-2.061-.625-4.747-.631-5.968l-.011-2.22-3.563 2.418c-15.081 10.234-32.223-3.963-25.066-20.76 3.839-9.01 18.004-11.798 25.737-5.065 1.445 1.258 1.708.778 2.597-4.742l.989-6.141-3.422-1.43c-4.941-2.064-14.968-2.556-20.466-1.003m319.912-.245c-19.229 4.527-26.973 29.913-13.563 44.461 7.428 8.058 21.542 11.216 33.972 7.601 4.468-1.299 4.649-1.502 5.25-5.889 1.032-7.526 1.031-7.527-2.405-5.75-8.086 4.181-21.986 2.671-27.662-3.005-5.973-5.973-5.142-6.498 10.44-6.598 7.563-.048 16-.385 18.75-.75l5-.662.298-5.702c.869-16.587-13.206-27.68-30.08-23.706M222 533.5V560h12v-53h-12v26.5m173 0V560l5.75.001h5.75l-.282-26.5-.282-26.501H395v26.5m260.421-24.75c.306.962 4.975 12.775 10.376 26.25l9.819 24.5h9.726l10.21-26 10.21-26-6.029-.302c-3.317-.165-6.357.06-6.757.5-.399.441-3.093 8.002-5.986 16.802-2.893 8.8-5.486 16.395-5.763 16.878-.752 1.313-1.544-.531-7.028-16.378-2.76-7.975-5.332-15.288-5.716-16.25-.563-1.414-1.937-1.75-7.157-1.75-5.698 0-6.395.207-5.905 1.75m-36.003 9.219c-2.563 1.037-7.418 6.671-7.418 8.608 0 1.158 2.418 1.423 12.969 1.423 14.175 0 13.667.276 10.726-5.835-2.127-4.419-10.433-6.56-16.277-4.196M456 573v4h70v-8h-70v4" fill-rule="evenodd"/></svg>