<svg xmlns="http://www.w3.org/2000/svg" viewBox="0 0 219.77 167.54"><defs><style>.cls-1{fill:#fff;}</style></defs><title>Logo Alb</title><g id="Layer_2" data-name="Layer 2"><g id="Layer_1-2" data-name="Layer 1"><path class="cls-1" d="M41.08,42.48l-2.66-4.61-1-1.72-6.8-11.79a2.53,2.53,0,0,0-2.23-1.29H19.2V17.92h9.19a7.53,7.53,0,0,1,6.69,3.86l2,3.45L45.54,39.9a2.53,2.53,0,0,0,2.23,1.29h3A2.52,2.52,0,0,0,53,39.9L61.5,25.23l2-3.45a7.54,7.54,0,0,1,6.69-3.86h9.19v51.7H74.21V23.07h-4A2.53,2.53,0,0,0,68,24.36L61.71,35.17l-3.25,5.62-1,1.69,0,.05a7.52,7.52,0,0,1-6.66,3.81h-3a7.53,7.53,0,0,1-6.68-3.84ZM24.36,33.39H19.2V69.62h5.16Z"/><path class="cls-1" d="M122.35,17.92h1.26a7.59,7.59,0,0,1,7.14,4.76l19.53,46.95H144.7L126,24.65a2.45,2.45,0,0,0-2.38-1.58h-2.53a2.45,2.45,0,0,0-2.38,1.58L100,69.63H94.41L114,22.68a7.57,7.57,0,0,1,7.13-4.76Z"/><path class="cls-1" d="M179.53,69.58H165.29V64.47h5.11v0h9.13a20.7,20.7,0,0,0,0-41.4H165.29V17.92H181a25.85,25.85,0,0,1-1.48,51.66"/><path class="cls-1" d="M36.9,102.61l-2.15-3.73-.81-1.39L28.44,88a2.05,2.05,0,0,0-1.81-1H19.2V82.74h7.43a6.1,6.1,0,0,1,5.42,3.12l1.61,2.8,6.85,11.86a2,2,0,0,0,1.81,1h2.44a2,2,0,0,0,1.81-1l6.85-11.86L55,85.86a6.1,6.1,0,0,1,5.42-3.12h7.43v41.83H63.71V86.91H60.45a2,2,0,0,0-1.81,1l-5,8.75L51,101.25l-.79,1.36,0,0a6.09,6.09,0,0,1-5.39,3.09H42.32a6.13,6.13,0,0,1-5.41-3.11ZM23.37,95.25H19.2v29.32h4.17Z"/><path class="cls-1" d="M80.05,103.6a22,22,0,1,1,22,22,22,22,0,0,1-22-22m39.73,0A17.78,17.78,0,1,0,102,121.38a17.78,17.78,0,0,0,17.78-17.78"/><path class="cls-1" d="M136.11,108.53v-4.17h15.94a8.73,8.73,0,1,0,0-17.45H136.11V82.74h15.94a12.89,12.89,0,0,1,2.56,25.53c-.35.07-.7.13-1.06.17l6.3,10.91a2,2,0,0,0,1.81,1.05H165v4.17h-3.29a6.11,6.11,0,0,1-5.42-3.13l-6.85-11.87a2,2,0,0,0-1.81-1H136.11Z"/><path class="cls-1" d="M177.08,82.74h28.3v4.17h-28.3Zm0,18.83h24.13v4.17H177.08Zm28.3,23h-28.3v-4.18h28.3Z"/><path class="cls-1" d="M18.2,139.51v7.7a2.5,2.5,0,0,0,.47,1.77,2.3,2.3,0,0,0,1.67.48h1.31v.86H20.19A3.06,3.06,0,0,1,18,149.6a3.28,3.28,0,0,1-.72-2.39v-7.7H15.47v-.83h1.76v-3h1v3h3.45v.83Z"/><path class="cls-1" d="M32.85,139.72a5.06,5.06,0,0,1,1.31,3.78v6.82h-.95v-6.75a4.46,4.46,0,0,0-1.05-3.19,3.73,3.73,0,0,0-2.85-1.1,4,4,0,0,0-3,1.2A5,5,0,0,0,25.17,144v6.28h-1V134.45h1v6.69a3.84,3.84,0,0,1,1.65-2,5,5,0,0,1,2.66-.7,4.65,4.65,0,0,1,3.37,1.28"/><path class="cls-1" d="M48,144.87H38a5.32,5.32,0,0,0,.69,2.64,4.15,4.15,0,0,0,1.69,1.61,5,5,0,0,0,2.3.54,4.7,4.7,0,0,0,2.87-.85A3.68,3.68,0,0,0,47,146.5h1a4.7,4.7,0,0,1-1.76,2.89,5.62,5.62,0,0,1-3.58,1.1,5.78,5.78,0,0,1-2.92-.73,5.09,5.09,0,0,1-2-2.09,7.34,7.34,0,0,1,0-6.36,5,5,0,0,1,2-2.07,5.93,5.93,0,0,1,2.94-.72,5.65,5.65,0,0,1,2.9.72,4.86,4.86,0,0,1,1.88,1.91,5.32,5.32,0,0,1,.64,2.57,11,11,0,0,1,0,1.15m-1.47-3.41a3.91,3.91,0,0,0-1.66-1.59,5.13,5.13,0,0,0-4.54,0,4.16,4.16,0,0,0-1.69,1.59,5.22,5.22,0,0,0-.7,2.62h9.14a4.82,4.82,0,0,0-.55-2.62"/><path class="cls-1" d="M57.14,141.34a5.08,5.08,0,0,1,2-2.09,5.81,5.81,0,0,1,2.91-.72,5.35,5.35,0,0,1,3.09.89,4.8,4.8,0,0,1,1.84,2.3v-7.27h1v15.87H67v-3.09a4.79,4.79,0,0,1-1.8,2.35,5.26,5.26,0,0,1-3.13.91,5.63,5.63,0,0,1-2.91-.74,5.11,5.11,0,0,1-2-2.1,6.67,6.67,0,0,1-.72-3.16,6.6,6.6,0,0,1,.72-3.15m9.2.46A4.57,4.57,0,0,0,64.61,140a4.8,4.8,0,0,0-2.44-.63,5,5,0,0,0-2.49.61A4.2,4.2,0,0,0,58,141.74a5.93,5.93,0,0,0-.6,2.75,5.86,5.86,0,0,0,.6,2.74A4.19,4.19,0,0,0,59.69,149a4.84,4.84,0,0,0,2.48.63,4.74,4.74,0,0,0,2.45-.64,4.42,4.42,0,0,0,1.73-1.8,5.73,5.73,0,0,0,.62-2.71,5.57,5.57,0,0,0-.63-2.69"/><path class="cls-1" d="M71.37,135.85a.79.79,0,0,1-.24-.61.83.83,0,0,1,1.4-.6.85.85,0,0,1,.23.6.82.82,0,0,1-1.39.61m1,14.47h-1V138.68h1Z"/><path class="cls-1" d="M84.11,139.42a4.66,4.66,0,0,1,1.8,2.28v-3h1v12a5.52,5.52,0,0,1-.71,2.82,4.81,4.81,0,0,1-1.91,1.86,5.49,5.49,0,0,1-2.68.66A6,6,0,0,1,78,155a4.92,4.92,0,0,1-1.88-2.83h1a4.09,4.09,0,0,0,1.61,2.21,5,5,0,0,0,2.94.83,4.45,4.45,0,0,0,2.21-.55,3.94,3.94,0,0,0,1.55-1.56,4.83,4.83,0,0,0,.57-2.39v-3.41a4.82,4.82,0,0,1-1.81,2.3,5.29,5.29,0,0,1-3.12.91,5.63,5.63,0,0,1-2.91-.74,5.11,5.11,0,0,1-2-2.1,6.67,6.67,0,0,1-.72-3.16,6.6,6.6,0,0,1,.72-3.15,5.08,5.08,0,0,1,2-2.09,5.81,5.81,0,0,1,2.91-.72,5.32,5.32,0,0,1,3.13.89m1.17,2.38A4.57,4.57,0,0,0,83.55,140a4.8,4.8,0,0,0-2.44-.63,5,5,0,0,0-2.49.61,4.29,4.29,0,0,0-1.68,1.77,5.93,5.93,0,0,0-.6,2.75,5.86,5.86,0,0,0,.6,2.74A4.28,4.28,0,0,0,78.63,149a4.84,4.84,0,0,0,2.48.63,4.77,4.77,0,0,0,2.45-.64,4.42,4.42,0,0,0,1.73-1.8,5.73,5.73,0,0,0,.62-2.71,5.57,5.57,0,0,0-.63-2.69"/><path class="cls-1" d="M90.31,135.85a.79.79,0,0,1-.24-.61.81.81,0,0,1,.24-.6.8.8,0,0,1,.58-.23.82.82,0,0,1,.58.23.85.85,0,0,1,.23.6.79.79,0,0,1-.81.84.8.8,0,0,1-.58-.23m1,14.47h-1V138.68h1Z"/><path class="cls-1" d="M96.33,139.51v7.7a2.5,2.5,0,0,0,.48,1.77,2.3,2.3,0,0,0,1.67.48h1.31v.86H98.33a3,3,0,0,1-2.24-.72,3.28,3.28,0,0,1-.72-2.39v-7.7H93.61v-.83h1.76v-3h1v3h3.46v.83Z"/><path class="cls-1" d="M102.46,141.34a5.08,5.08,0,0,1,2-2.09,5.81,5.81,0,0,1,2.91-.72,5.33,5.33,0,0,1,3.13.9,4.73,4.73,0,0,1,1.8,2.29v-3h1v11.64h-1v-3.07a4.74,4.74,0,0,1-1.81,2.33,5.29,5.29,0,0,1-3.12.91,5.63,5.63,0,0,1-2.91-.74,5.11,5.11,0,0,1-2-2.1,6.67,6.67,0,0,1-.72-3.16,6.6,6.6,0,0,1,.72-3.15m9.2.46a4.57,4.57,0,0,0-1.73-1.81,4.8,4.8,0,0,0-2.44-.63A5,5,0,0,0,105,140a4.2,4.2,0,0,0-1.67,1.77,5.93,5.93,0,0,0-.6,2.75,5.86,5.86,0,0,0,.6,2.74A4.19,4.19,0,0,0,105,149a4.84,4.84,0,0,0,2.48.63,4.74,4.74,0,0,0,2.45-.64,4.35,4.35,0,0,0,1.73-1.8,6.14,6.14,0,0,0,0-5.4"/><rect class="cls-1" x="116.78" y="134.45" width="0.96" height="15.87"/><path class="cls-1" d="M127.44,141.34a5.11,5.11,0,0,1,2-2.09,5.81,5.81,0,0,1,2.91-.72,5.33,5.33,0,0,1,3.13.9,4.73,4.73,0,0,1,1.8,2.29v-3h1v11.64h-1v-3.07a4.8,4.8,0,0,1-1.81,2.33,5.29,5.29,0,0,1-3.12.91,5.63,5.63,0,0,1-2.91-.74,5.13,5.13,0,0,1-2-2.1,6.78,6.78,0,0,1-.71-3.16,6.71,6.71,0,0,1,.71-3.15m9.21.46a4.57,4.57,0,0,0-1.73-1.81,4.8,4.8,0,0,0-2.44-.63A5,5,0,0,0,130,140a4.23,4.23,0,0,0-1.68,1.77,5.93,5.93,0,0,0-.6,2.75,5.86,5.86,0,0,0,.6,2.74A4.22,4.22,0,0,0,130,149a4.84,4.84,0,0,0,2.48.63,4.77,4.77,0,0,0,2.45-.64,4.42,4.42,0,0,0,1.73-1.8,5.73,5.73,0,0,0,.62-2.71,5.57,5.57,0,0,0-.63-2.69"/><path class="cls-1" d="M149.91,139.42a4.74,4.74,0,0,1,1.81,2.28v-3h1v12a5.42,5.42,0,0,1-.71,2.82,4.81,4.81,0,0,1-1.91,1.86,5.46,5.46,0,0,1-2.68.66,6,6,0,0,1-3.62-1.05,4.89,4.89,0,0,1-1.89-2.83h1a4.07,4.07,0,0,0,1.6,2.21,5,5,0,0,0,2.94.83,4.42,4.42,0,0,0,2.21-.55,3.9,3.9,0,0,0,1.56-1.56,4.83,4.83,0,0,0,.57-2.39v-3.41a4.84,4.84,0,0,1-1.82,2.3,5.25,5.25,0,0,1-3.12.91,5.61,5.61,0,0,1-2.9-.74,5.07,5.07,0,0,1-2-2.1,6.67,6.67,0,0,1-.72-3.16,6.6,6.6,0,0,1,.72-3.15,5,5,0,0,1,2-2.09,5.8,5.8,0,0,1,2.9-.72,5.3,5.3,0,0,1,3.13.89m1.17,2.38a4.62,4.62,0,0,0-1.72-1.81,4.83,4.83,0,0,0-2.45-.63,5,5,0,0,0-2.49.61,4.27,4.27,0,0,0-1.67,1.77,5.93,5.93,0,0,0-.6,2.75,5.86,5.86,0,0,0,.6,2.74,4.19,4.19,0,0,0,1.68,1.78,5.12,5.12,0,0,0,4.94,0,4.39,4.39,0,0,0,1.72-1.8,6.06,6.06,0,0,0,0-5.4"/><path class="cls-1" d="M166.64,144.87H156.58a5.32,5.32,0,0,0,.69,2.64,4.15,4.15,0,0,0,1.69,1.61,5,5,0,0,0,2.3.54,4.7,4.7,0,0,0,2.87-.85,3.64,3.64,0,0,0,1.46-2.31h1a4.65,4.65,0,0,1-1.76,2.89,5.62,5.62,0,0,1-3.58,1.1,5.78,5.78,0,0,1-2.92-.73,5,5,0,0,1-2-2.09,6.58,6.58,0,0,1-.73-3.18,6.69,6.69,0,0,1,.72-3.18,4.93,4.93,0,0,1,2-2.07,5.93,5.93,0,0,1,2.94-.72,5.68,5.68,0,0,1,2.91.72,4.9,4.9,0,0,1,1.87,1.91,5.33,5.33,0,0,1,.65,2.57,10.41,10.41,0,0,1-.05,1.15m-1.47-3.41a3.85,3.85,0,0,0-1.66-1.59,5,5,0,0,0-2.27-.53,4.92,4.92,0,0,0-2.26.53,4.18,4.18,0,0,0-1.7,1.59,5.22,5.22,0,0,0-.7,2.62h9.14a4.82,4.82,0,0,0-.55-2.62"/><path class="cls-1" d="M178.25,139.72a5.06,5.06,0,0,1,1.31,3.78v6.82h-.95v-6.75a4.46,4.46,0,0,0-1.05-3.19,3.73,3.73,0,0,0-2.85-1.1,3.92,3.92,0,0,0-3,1.2,5,5,0,0,0-1.13,3.56v6.28h-1V138.68h1v2.46a3.83,3.83,0,0,1,1.64-2,5,5,0,0,1,2.65-.7,4.65,4.65,0,0,1,3.39,1.28"/><path class="cls-1" d="M183.08,141.31a5.05,5.05,0,0,1,2-2.07,5.86,5.86,0,0,1,2.93-.71,5.68,5.68,0,0,1,3.59,1.09,4.67,4.67,0,0,1,1.75,2.94h-1a3.65,3.65,0,0,0-1.45-2.36,4.75,4.75,0,0,0-2.88-.86,4.82,4.82,0,0,0-2.34.57,4.24,4.24,0,0,0-1.69,1.74,6.74,6.74,0,0,0,0,5.69,4.36,4.36,0,0,0,1.69,1.74,4.83,4.83,0,0,0,2.34.58,4.75,4.75,0,0,0,2.88-.86,3.65,3.65,0,0,0,1.45-2.36h1a4.73,4.73,0,0,1-1.76,2.94,5.62,5.62,0,0,1-3.58,1.11,5.77,5.77,0,0,1-2.93-.73,5,5,0,0,1-2-2.09,7.48,7.48,0,0,1,0-6.36"/><polygon class="cls-1" points="205.38 138.68 198.6 155.79 197.62 155.79 199.78 150.32 194.89 138.68 195.94 138.68 200.32 149.25 204.39 138.68 205.38 138.68"/><polygon class="cls-1" points="37.13 163.84 37.13 167.54 0 167.54 0 141.42 3.7 141.42 3.7 163.84 37.13 163.84"/><polygon class="cls-1" points="182.65 3.7 182.65 0 219.77 0 219.77 26.12 216.07 26.12 216.07 3.7 182.65 3.7"/></g></g></svg>